<svg width="75" height="75" viewBox="0 0 75 75" fill="none" xmlns="http://www.w3.org/2000/svg">
<path d="M57.702 51.45H52.9365V32.0205C52.9353 30.9269 52.5003 29.8784 51.727 29.105C50.9537 28.3317 49.9052 27.8967 48.8115 27.8955H46.311V22.7415H44.1V19.0605H28.599V22.7415H26.391V51.45H22.0155V38.1C21.9749 37.5969 22.1333 37.0978 22.4567 36.7102C22.7801 36.3226 23.2427 36.0773 23.745 36.027H24.5715V33.777H23.745C22.6451 33.8258 21.6093 34.3078 20.8636 35.1178C20.118 35.9278 19.7232 36.9999 19.7655 38.1V51.45H15C14.7016 51.45 14.4155 51.5686 14.2045 51.7795C13.9935 51.9905 13.875 52.2767 13.875 52.575C13.875 52.8734 13.9935 53.1596 14.2045 53.3705C14.4155 53.5815 14.7016 53.7 15 53.7H57.702C58.0004 53.7 58.2865 53.5815 58.4975 53.3705C58.7085 53.1596 58.827 52.8734 58.827 52.575C58.827 52.2767 58.7085 51.9905 58.4975 51.7795C58.2865 51.5686 58.0004 51.45 57.702 51.45ZM30.852 21.3H41.85V22.731H30.849L30.852 21.3ZM32.325 51.45V50.421C32.325 49.9238 32.5225 49.4468 32.8742 49.0952C33.2258 48.7436 33.7027 48.546 34.2 48.546H38.505C39.0022 48.5464 39.4788 48.7441 39.8304 49.0957C40.1819 49.4472 40.3796 49.9239 40.38 50.421V51.45H32.325ZM42.633 51.45V50.421C42.6318 49.3274 42.1968 48.2789 41.4235 47.5055C40.6502 46.7322 39.6017 46.2972 38.508 46.296H34.2C33.1062 46.2968 32.0575 46.7317 31.2841 47.5051C30.5106 48.2785 30.0758 49.3273 30.075 50.421V51.45H28.644V24.9915H44.064V51.45H42.633ZM46.314 51.45V30.15H48.8145C49.3115 30.1508 49.788 30.3486 50.1395 30.7001C50.4909 31.0516 50.6887 31.528 50.6895 32.025V51.45H46.314ZM31.2 29.3685H41.505V31.6185H31.2V29.3685ZM47.4 32.313H49.608V34.563H47.4V32.313ZM47.4 35.2575H49.608V37.5075H47.4V35.2575ZM47.4 38.2035H49.608V40.4535H47.4V38.2035ZM47.4 41.148H49.608V43.398H47.4V41.148ZM47.4 44.094H49.608V46.344H47.4V44.094ZM47.4 47.037H49.608V49.287H47.4V47.037ZM31.2 34.5225H41.505V36.7725H31.2V34.5225ZM31.2 39.675H41.505V41.925H31.2V39.675Z" fill="white"/>
</svg>
