<svg width="75" height="75" viewBox="0 0 75 75" fill="none" xmlns="http://www.w3.org/2000/svg">
<path d="M57 56.6085H54.9345V41.5696C54.9329 40.4762 54.4978 39.428 53.7245 38.655C52.9512 37.882 51.9029 37.4472 50.8095 37.4461H45.3585V19.596H43.4445V16.3965H37.6995V13.05C37.6995 12.7517 37.581 12.4655 37.37 12.2546C37.159 12.0436 36.8729 11.925 36.5745 11.925C36.2761 11.925 35.99 12.0436 35.779 12.2546C35.568 12.4655 35.4495 12.7517 35.4495 13.05V16.3935H29.7V19.5855H27.789V56.6055H24.3V45.1875C24.2646 44.7906 24.3861 44.3956 24.6385 44.0872C24.8908 43.7788 25.2539 43.5815 25.65 43.5376H26.367V41.2876H25.65C24.6563 41.3297 23.7197 41.7636 23.045 42.4945C22.3704 43.2253 22.0126 44.1936 22.05 45.1875V56.6085H19.9785C19.6801 56.6085 19.394 56.7271 19.183 56.9381C18.972 57.149 18.8535 57.4352 18.8535 57.7335C18.8535 58.0319 18.972 58.3181 19.183 58.529C19.394 58.74 19.6801 58.8585 19.9785 58.8585H57C57.2984 58.8585 57.5845 58.74 57.7955 58.529C58.0065 58.3181 58.125 58.0319 58.125 57.7335C58.125 57.4352 58.0065 57.149 57.7955 56.9381C57.5845 56.7271 57.2984 56.6085 57 56.6085ZM31.95 18.6465H41.19V19.5885H31.95V18.6465ZM33.2265 56.6085V56.2666C33.2269 55.7694 33.4246 55.2927 33.7761 54.9412C34.1277 54.5896 34.6044 54.392 35.1015 54.3916H38.0385C38.5357 54.392 39.0124 54.5896 39.3639 54.9412C39.7154 55.2927 39.9131 55.7694 39.9135 56.2666V56.6085H33.2265ZM42.1635 56.6085V56.2666C42.1619 55.173 41.7268 54.1247 40.9536 53.3515C40.1803 52.5782 39.132 52.1431 38.0385 52.1416H35.1C34.0065 52.1431 32.9582 52.5782 32.185 53.3515C31.4117 54.1247 30.9766 55.173 30.975 56.2666V56.6085H30.033V21.8385H43.1025V56.6085H42.1635ZM45.354 56.6085V39.6961H50.805C51.3018 39.6968 51.778 39.8944 52.1294 40.2456C52.4809 40.5967 52.6788 41.0728 52.68 41.5696V56.6085H45.354ZM30.981 30.2866H33.231V48.159H30.981V30.2866ZM39.918 30.2866H42.168V48.159H39.918V30.2866ZM35.4495 30.2866H37.6995V48.159H35.4495V30.2866ZM30.981 23.904H33.231V27.096H30.981V23.904ZM39.918 23.904H42.168V27.096H39.918V23.904ZM35.4495 23.904H37.6995V27.096H35.4495V23.904ZM46.3005 41.5501H48.5505V54.7635H46.3005V41.5501ZM49.4925 41.5501H51.7425V54.7635H49.4925V41.5501Z" fill="white"/>
</svg>
