<svg width="120" height="120" viewBox="0 0 120 120" fill="none" xmlns="http://www.w3.org/2000/svg">
<g opacity="0.2">
<path opacity="0.2" d="M60 120C93.1371 120 120 93.1371 120 60C120 26.8629 93.1371 0 60 0C26.8629 0 0 26.8629 0 60C0 93.1371 26.8629 120 60 120Z" fill="white"/>
</g>
<path d="M106.64 58.48H102.13C101.622 47.9854 97.2203 38.057 89.7853 30.6331C82.3503 23.2091 72.4153 18.8226 61.9199 18.33V13.75H57.9199V18.34C47.4517 18.8684 37.5536 23.2691 30.1486 30.6871C22.7435 38.1051 18.3601 48.0109 17.8499 58.48H13.1899V62.48H17.8599C18.3699 72.9475 22.7518 82.8519 30.1549 90.2697C37.5579 97.6875 47.4535 102.089 57.9199 102.62V107.21H61.9199V102.63C72.4154 102.14 82.3515 97.756 89.7884 90.3339C97.2252 82.9118 101.629 72.9845 102.14 62.49H106.65L106.64 58.48ZM61.9199 98.62V94H57.9199V98.63C48.5096 98.1085 39.6232 94.1301 32.9662 87.4584C26.3093 80.7866 22.3506 71.8915 21.8499 62.48H26.4099V58.48H21.8499C22.3552 49.071 26.3156 40.1795 32.9719 33.5103C39.6282 26.8411 48.5119 22.8635 57.9199 22.34V27H61.9199V22.33C71.3543 22.8203 80.2736 26.7846 86.9592 33.4592C93.6449 40.1338 97.624 49.0464 98.1299 58.48H93.4199V62.48H98.1399C97.6336 71.9142 93.6527 80.827 86.9648 87.5002C80.2768 94.1734 71.3552 98.1345 61.9199 98.62Z" fill="white"/>
<path d="M74.25 58.5H61.47V45.78C61.47 45.3822 61.312 45.0007 61.0307 44.7194C60.7494 44.4381 60.3678 44.28 59.97 44.28C59.5722 44.28 59.1906 44.4381 58.9093 44.7194C58.628 45.0007 58.47 45.3822 58.47 45.78V58.5H45.75C45.3522 58.5 44.9706 58.6581 44.6893 58.9394C44.408 59.2207 44.25 59.6022 44.25 60C44.25 60.3979 44.408 60.7794 44.6893 61.0607C44.9706 61.342 45.3522 61.5 45.75 61.5H58.47V74.21C58.47 74.6079 58.628 74.9894 58.9093 75.2707C59.1906 75.552 59.5722 75.71 59.97 75.71C60.3678 75.71 60.7494 75.552 61.0307 75.2707C61.312 74.9894 61.47 74.6079 61.47 74.21V61.5H74.25C74.6478 61.5 75.0294 61.342 75.3107 61.0607C75.592 60.7794 75.75 60.3979 75.75 60C75.75 59.6022 75.592 59.2207 75.3107 58.9394C75.0294 58.6581 74.6478 58.5 74.25 58.5Z" fill="#3AE388"/>
</svg>
