<svg width="75" height="30" viewBox="0 0 75 30" fill="none" xmlns="http://www.w3.org/2000/svg">
<g clip-path="url(#clip0)">
<path d="M72.8906 2.27747H72.4219L71.9531 1.72773H71.7969V2.27747H71.4062V0.706787H72.1875C72.2656 0.706787 72.3437 0.706787 72.3437 0.785321C72.4219 0.785321 72.5 0.863855 72.5 0.942389C72.6563 1.02092 72.6562 1.09946 72.6562 1.17799C72.6562 1.25653 72.6562 1.41359 72.5781 1.41359C72.5 1.49213 72.4219 1.57066 72.2656 1.57066L72.8906 2.27747ZM72.1875 1.17799V1.09946C72.1875 1.09946 72.1875 1.02092 72.1094 1.02092H72.0312H71.7188V1.41359H72.0312C72.1094 1.41359 72.1094 1.41359 72.1094 1.33506L72.1875 1.25653V1.17799Z" fill="white"/>
<path d="M73.5156 1.49215C73.5156 1.88482 73.3594 2.27749 73.0469 2.59162C72.7344 2.90576 72.4219 3.06283 71.9531 3.06283C71.5625 3.06283 71.1719 2.90576 70.8594 2.59162C70.5469 2.27749 70.3906 1.96335 70.3906 1.49215C70.3906 1.09948 70.5469 0.706806 70.8594 0.39267C71.25 0.157068 71.6406 0 72.0312 0C72.4219 0 72.8125 0.157068 73.125 0.471204C73.3594 0.706806 73.5156 1.09948 73.5156 1.49215ZM73.2031 1.49215C73.2031 1.17801 73.125 0.863874 72.8906 0.628272C72.6562 0.39267 72.3438 0.235602 72.0312 0.235602C71.7187 0.235602 71.4062 0.314136 71.1719 0.628272C70.9375 0.863874 70.8594 1.17801 70.8594 1.49215C70.8594 1.80628 70.9375 2.12042 71.1719 2.35602C71.4062 2.59162 71.7187 2.74869 72.0312 2.74869C72.3438 2.74869 72.6562 2.59162 72.8906 2.35602C73.0469 2.12042 73.2031 1.88482 73.2031 1.49215ZM8.125 15.7853C8.125 20.733 9.375 22.5393 14.5313 22.5393C16.4844 22.5393 18.0469 22.3822 19.1406 21.7539C20.2344 21.1257 20.8594 20.0262 20.8594 18.1414H16.7969C16.7188 19.555 15.7813 19.712 14.5313 19.712C12.6563 19.712 12.2656 18.9267 12.2656 16.5707V16.4921H20.9375V15.8639C20.9375 10.445 19.4531 9.10995 14.5313 9.10995C9.29688 9.03141 8.125 10.6806 8.125 15.7853ZM14.4531 11.8586C15.9375 11.8586 16.7188 12.0157 16.7188 14.0576V14.1361H12.2656C12.3438 12.4084 12.7344 11.8586 14.4531 11.8586ZM48.75 11.7016C46.9531 11.7016 46.5625 12.3298 46.5625 14.1361H51.1719V13.9791C51.1719 11.8586 50.3125 11.7016 48.75 11.7016ZM30.0781 19.8691C28.9844 19.8691 27.8906 19.8691 27.8125 18.377H23.6719C23.6719 21.2827 25.0781 22.2251 27.6563 22.4607C28.4375 22.5393 29.2969 22.5393 30.1562 22.5393C33.6719 22.5393 36.5625 21.9895 36.5625 18.1414C36.5625 14.5288 34.6875 14.2147 30.1562 14.1361C27.8906 14.0576 27.8125 13.5864 27.8125 12.8796C27.8125 12.0157 27.8906 11.7016 30.1562 11.7016C31.0156 11.7016 31.7969 11.7801 32.0312 12.801H35.9375V12.2513C35.9375 9.10995 32.6562 9.03141 30.1562 9.03141C26.4062 9.03141 23.75 9.10995 23.75 13.3508C23.75 16.0209 24.6875 17.199 30.1562 17.199C30.625 17.199 31.4062 17.199 31.875 17.356C32.3438 17.5131 32.5 17.9058 32.5 18.6126C32.5 19.712 32.0312 19.8691 30.0781 19.8691Z" fill="white"/>
<path d="M73.2812 6.20431C71.6406 3.45562 68.4375 1.5708 64.7656 1.5708H10.3906C6.64062 1.5708 3.51562 3.53415 1.79688 6.20431C0.3125 8.7174 0 12.8797 0 15.6284C0 18.3771 0.3125 22.5394 1.79688 25.0525C3.4375 27.8012 6.64062 29.686 10.3906 29.686H64.6875C68.4375 29.686 71.5625 27.7226 73.2812 25.0525C74.7656 22.5394 75.0781 18.3771 75.0781 15.6284C75.0781 12.9582 74.7656 8.79593 73.2812 6.20431ZM39.1406 27.33H11.0938C8.90625 27.33 6.40625 26.2305 5.07812 24.8169C2.96875 22.5394 2.57812 19.0054 2.57812 15.7069C2.57812 12.33 3.04688 8.79593 5.15625 6.59698C6.48438 5.18337 8.98438 4.08389 11.1719 4.08389H39.1406V27.33ZM55.2344 16.2567H46.5625V16.4137C46.5625 18.7698 46.9531 19.5551 48.8281 19.5551C50.1562 19.5551 51.0938 19.398 51.1719 17.9844H55.1562C55.1562 19.8692 54.4531 20.8902 53.4375 21.5184C52.3438 22.1467 50.7812 22.3038 48.8281 22.3038C43.6719 22.3038 42.4219 20.576 42.4219 15.6284C42.4219 10.5237 43.5156 8.953 48.8281 8.953C53.75 8.953 55.1562 10.2881 55.1562 15.6284V16.2567H55.2344ZM68.0469 12.0158H65V22.3038H60.8594V12.0158H57.8125V9.03153H68.0469V12.0158Z" fill="white"/>
</g>
<defs>
<clipPath id="clip0">
<rect width="75" height="30" fill="white"/>
</clipPath>
</defs>
</svg>
