<svg width="120" height="120" viewBox="0 0 120 120" fill="none" xmlns="http://www.w3.org/2000/svg">
<g opacity="0.2">
<path opacity="0.2" d="M60 120C93.1371 120 120 93.1371 120 60C120 26.8629 93.1371 0 60 0C26.8629 0 0 26.8629 0 60C0 93.1371 26.8629 120 60 120Z" fill="white"/>
</g>
<path d="M73.2197 87.29H45.7397C45.2093 87.29 44.7006 87.5007 44.3255 87.8758C43.9505 88.2508 43.7397 88.7595 43.7397 89.29C43.7397 89.8204 43.9505 90.3291 44.3255 90.7042C44.7006 91.0793 45.2093 91.29 45.7397 91.29H73.2197C73.7502 91.29 74.2589 91.0793 74.634 90.7042C75.009 90.3291 75.2197 89.8204 75.2197 89.29C75.2197 88.7595 75.009 88.2508 74.634 87.8758C74.2589 87.5007 73.7502 87.29 73.2197 87.29Z" fill="white"/>
<path d="M59.9999 13.31C51.586 13.3145 43.3264 15.5694 36.0774 19.8411C28.8284 24.1127 22.854 30.2456 18.7735 37.6038C14.6929 44.962 12.6548 53.2778 12.8705 61.689C13.0861 70.1001 15.5477 78.3005 19.9999 85.44C20.1351 85.6709 20.3153 85.8722 20.5297 86.0322C20.7441 86.1922 20.9884 86.3076 21.2482 86.3714C21.508 86.4353 21.778 86.4464 22.0422 86.4041C22.3063 86.3617 22.5593 86.2668 22.7862 86.125C23.013 85.9831 23.2091 85.7972 23.3627 85.5782C23.5164 85.3592 23.6246 85.1116 23.6809 84.8501C23.7372 84.5886 23.7405 84.3184 23.6905 84.0556C23.6405 83.7927 23.5383 83.5426 23.3899 83.32C19.3157 76.7841 17.0641 69.2773 16.8688 61.5781C16.6734 53.8788 18.5414 46.2674 22.2789 39.5334C26.0164 32.7993 31.4874 27.1877 38.1245 23.2806C44.7617 19.3735 52.3232 17.3131 60.0249 17.3131C67.7266 17.3131 75.2882 19.3735 81.9253 23.2806C88.5624 27.1877 94.0334 32.7993 97.7709 39.5334C101.508 46.2674 103.376 53.8788 103.181 61.5781C102.986 69.2773 100.734 76.7841 96.6599 83.32C96.4658 83.7581 96.4354 84.2513 96.5743 84.7099C96.7132 85.1685 97.0121 85.562 97.4166 85.8188C97.8212 86.0756 98.3045 86.1786 98.7786 86.1091C99.2527 86.0396 99.6861 85.8021 99.9999 85.44C104.452 78.3005 106.914 70.1001 107.129 61.689C107.345 53.2778 105.307 44.962 101.226 37.6038C97.1458 30.2456 91.1714 24.1127 83.9224 19.8411C76.6734 15.5694 68.4138 13.3145 59.9999 13.31Z" fill="white"/>
<path d="M100 36.39C99.8985 36.2212 99.7645 36.0741 99.6059 35.9571C99.4473 35.8401 99.2672 35.7555 99.0759 35.7081C98.8845 35.6608 98.6858 35.6516 98.4909 35.6811C98.296 35.7106 98.1089 35.7782 97.9402 35.88L65.5602 55.38C64.2885 53.9921 62.5464 53.1263 60.6721 52.9506C58.7979 52.775 56.9253 53.3022 55.4179 54.4297C53.9104 55.5572 52.8758 57.2047 52.5149 59.0522C52.1539 60.8997 52.4924 62.8155 53.4646 64.4274C54.4368 66.0394 55.9733 67.2326 57.7759 67.7753C59.5784 68.318 61.5183 68.1715 63.2188 67.3642C64.9194 66.557 66.2593 65.1466 66.9784 63.4069C67.6975 61.6672 67.7445 59.7224 67.1102 57.95L99.4702 38.45C99.6406 38.35 99.7896 38.2172 99.9086 38.0593C100.028 37.9015 100.114 37.7217 100.163 37.5302C100.213 37.3388 100.224 37.1395 100.196 36.9438C100.168 36.7482 100.101 36.5599 100 36.39ZM60.0002 65C59.1003 65 58.2206 64.7332 57.4723 64.2332C56.7241 63.7333 56.1409 63.0226 55.7965 62.1912C55.4521 61.3598 55.362 60.445 55.5376 59.5624C55.7132 58.6798 56.1465 57.869 56.7828 57.2327C57.4192 56.5964 58.2299 56.163 59.1125 55.9875C59.9951 55.8119 60.91 55.902 61.7414 56.2464C62.5728 56.5908 63.2834 57.1739 63.7834 57.9222C64.2833 58.6704 64.5502 59.5501 64.5502 60.45C64.5475 61.656 64.0673 62.8117 63.2146 63.6644C62.3619 64.5172 61.2061 64.9974 60.0002 65Z" fill="#3AE388"/>
</svg>
