<svg width="120" height="120" viewBox="0 0 120 120" fill="none" xmlns="http://www.w3.org/2000/svg">
<g opacity="0.2">
<path opacity="0.2" d="M60 120C93.1371 120 120 93.1371 120 60C120 26.8629 93.1371 0 60 0C26.8629 0 0 26.8629 0 60C0 93.1371 26.8629 120 60 120Z" fill="white"/>
</g>
<path d="M78.8898 92.24H41.1098C37.5708 92.2347 34.1782 90.8265 31.6757 88.324C29.1733 85.8216 27.7651 82.429 27.7598 78.89V41.11C27.7651 37.571 29.1733 34.1784 31.6757 31.676C34.1782 29.1735 37.5708 27.7653 41.1098 27.76H78.8898C82.4288 27.7653 85.8213 29.1735 88.3238 31.676C90.8263 34.1784 92.2345 37.571 92.2398 41.11V78.89C92.2345 82.429 90.8263 85.8216 88.3238 88.324C85.8213 90.8265 82.4288 92.2347 78.8898 92.24ZM41.1098 31.76C38.6308 31.7627 36.2541 32.7486 34.5012 34.5015C32.7484 36.2544 31.7624 38.631 31.7598 41.11V78.89C31.7624 81.369 32.7484 83.7456 34.5012 85.4985C36.2541 87.2514 38.6308 88.2374 41.1098 88.24H78.8898C81.3687 88.2374 83.7454 87.2514 85.4983 85.4985C87.2512 83.7456 88.2371 81.369 88.2398 78.89V41.11C88.2371 38.631 87.2512 36.2544 85.4983 34.5015C83.7454 32.7486 81.3687 31.7627 78.8898 31.76H41.1098Z" fill="white"/>
<path d="M40 55.82L56.71 72.76L96 33.24" stroke="#3AE388" stroke-width="3"/>
</svg>
